<mxfile host="app.diagrams.net" modified="2021-09-28T13:48:37.149Z" agent="5.0 (Windows NT 10.0; Win64; x64) AppleWebKit/537.36 (KHTML, like Gecko) Chrome/93.0.4577.82 Safari/537.36" etag="xP-PjIjwWP9BCcW-r8-p" version="15.3.5" type="github">
  <diagram id="g3mVqeSmK5UX76V1MI1i" name="Page-1">
    <mxGraphModel dx="2046" dy="681" grid="1" gridSize="10" guides="1" tooltips="1" connect="1" arrows="1" fold="1" page="1" pageScale="1" pageWidth="827" pageHeight="1169" math="0" shadow="0">
      <root>
        <mxCell id="0" />
        <mxCell id="1" parent="0" />
        <mxCell id="WmKtAFG8N5slOJCgmu7g-1" value="Medicament " style="swimlane;fontStyle=0;childLayout=stackLayout;horizontal=1;startSize=26;fillColor=#d5e8d4;horizontalStack=0;resizeParent=1;resizeParentMax=0;resizeLast=0;collapsible=1;marginBottom=0;hachureGap=4;pointerEvents=0;strokeColor=#82b366;" parent="1" vertex="1">
          <mxGeometry x="-20" y="170" width="190" height="124" as="geometry" />
        </mxCell>
        <mxCell id="WmKtAFG8N5slOJCgmu7g-2" value="PK nomMedi : varChar(30)" style="text;strokeColor=none;fillColor=none;align=left;verticalAlign=top;spacingLeft=4;spacingRight=4;overflow=hidden;rotatable=0;points=[[0,0.5],[1,0.5]];portConstraint=eastwest;fontStyle=0" parent="WmKtAFG8N5slOJCgmu7g-1" vertex="1">
          <mxGeometry y="26" width="190" height="26" as="geometry" />
        </mxCell>
        <mxCell id="WmKtAFG8N5slOJCgmu7g-3" value="DescriptionFr : text" style="text;strokeColor=none;fillColor=none;align=left;verticalAlign=top;spacingLeft=4;spacingRight=4;overflow=hidden;rotatable=0;points=[[0,0.5],[1,0.5]];portConstraint=eastwest;" parent="WmKtAFG8N5slOJCgmu7g-1" vertex="1">
          <mxGeometry y="52" width="190" height="26" as="geometry" />
        </mxCell>
        <mxCell id="WmKtAFG8N5slOJCgmu7g-4" value="DescriptionLatin : text" style="text;strokeColor=none;fillColor=none;align=left;verticalAlign=top;spacingLeft=4;spacingRight=4;overflow=hidden;rotatable=0;points=[[0,0.5],[1,0.5]];portConstraint=eastwest;" parent="WmKtAFG8N5slOJCgmu7g-1" vertex="1">
          <mxGeometry y="78" width="190" height="26" as="geometry" />
        </mxCell>
        <mxCell id="WmKtAFG8N5slOJCgmu7g-5" value="nbPillule : int" style="text;html=1;strokeColor=none;fillColor=none;align=left;verticalAlign=middle;whiteSpace=wrap;rounded=0;hachureGap=4;pointerEvents=0;" parent="WmKtAFG8N5slOJCgmu7g-1" vertex="1">
          <mxGeometry y="104" width="190" height="20" as="geometry" />
        </mxCell>
        <mxCell id="WmKtAFG8N5slOJCgmu7g-6" value="Contre Indication" style="swimlane;fontStyle=0;childLayout=stackLayout;horizontal=1;startSize=26;fillColor=#d5e8d4;horizontalStack=0;resizeParent=1;resizeParentMax=0;resizeLast=0;collapsible=1;marginBottom=0;hachureGap=4;pointerEvents=0;strokeColor=#82b366;" parent="1" vertex="1">
          <mxGeometry x="500" y="170" width="210" height="98" as="geometry" />
        </mxCell>
        <mxCell id="WmKtAFG8N5slOJCgmu7g-7" value="PK CodeCI : varChar(30)" style="text;strokeColor=none;fillColor=none;align=left;verticalAlign=top;spacingLeft=4;spacingRight=4;overflow=hidden;rotatable=0;points=[[0,0.5],[1,0.5]];portConstraint=eastwest;fontStyle=0" parent="WmKtAFG8N5slOJCgmu7g-6" vertex="1">
          <mxGeometry y="26" width="210" height="26" as="geometry" />
        </mxCell>
        <mxCell id="WmKtAFG8N5slOJCgmu7g-8" value="DescriptionCI : text " style="text;strokeColor=none;fillColor=none;align=left;verticalAlign=top;spacingLeft=4;spacingRight=4;overflow=hidden;rotatable=0;points=[[0,0.5],[1,0.5]];portConstraint=eastwest;" parent="WmKtAFG8N5slOJCgmu7g-6" vertex="1">
          <mxGeometry y="52" width="210" height="26" as="geometry" />
        </mxCell>
        <mxCell id="WmKtAFG8N5slOJCgmu7g-11" value="&lt;b&gt;&lt;font color=&quot;#ff0000&quot;&gt;FK medinom : varChar(30)&lt;/font&gt;&lt;/b&gt;" style="text;html=1;strokeColor=none;fillColor=none;align=center;verticalAlign=middle;whiteSpace=wrap;rounded=0;hachureGap=4;pointerEvents=0;" parent="WmKtAFG8N5slOJCgmu7g-6" vertex="1">
          <mxGeometry y="78" width="210" height="20" as="geometry" />
        </mxCell>
        <mxCell id="WmKtAFG8N5slOJCgmu7g-10" value="" style="endArrow=ERoneToMany;dashed=1;html=1;startSize=14;endSize=14;sourcePerimeterSpacing=8;targetPerimeterSpacing=8;startArrow=ERmandOne;startFill=0;endFill=0;" parent="1" source="WmKtAFG8N5slOJCgmu7g-1" target="WmKtAFG8N5slOJCgmu7g-6" edge="1">
          <mxGeometry width="50" height="50" relative="1" as="geometry">
            <mxPoint x="310" y="240" as="sourcePoint" />
            <mxPoint x="360" y="190" as="targetPoint" />
          </mxGeometry>
        </mxCell>
        <mxCell id="WmKtAFG8N5slOJCgmu7g-12" value="&lt;b style=&quot;background-color: rgb(255 , 255 , 51)&quot;&gt;EXO2 : traduction en modéle physique&amp;nbsp;&lt;/b&gt;" style="text;html=1;strokeColor=none;fillColor=none;align=center;verticalAlign=middle;whiteSpace=wrap;rounded=0;hachureGap=4;pointerEvents=0;" parent="1" vertex="1">
          <mxGeometry x="220" y="60" width="260" height="20" as="geometry" />
        </mxCell>
        <mxCell id="E8sl169XmfHfBf8Qk7qb-1" value="&lt;b style=&quot;background-color: rgb(255 , 255 , 51)&quot;&gt;EXO1 : Traduction en modéle physique&amp;nbsp;&lt;/b&gt;" style="text;html=1;strokeColor=none;fillColor=none;align=center;verticalAlign=middle;whiteSpace=wrap;rounded=0;hachureGap=4;pointerEvents=0;" vertex="1" parent="1">
          <mxGeometry x="414" y="420" width="226" height="20" as="geometry" />
        </mxCell>
        <mxCell id="E8sl169XmfHfBf8Qk7qb-2" value="Projet " style="shape=table;startSize=30;container=1;collapsible=1;childLayout=tableLayout;fixedRows=1;rowLines=0;fontStyle=1;align=center;resizeLast=1;hachureGap=4;pointerEvents=0;" vertex="1" parent="1">
          <mxGeometry x="437" y="480" width="180" height="170" as="geometry" />
        </mxCell>
        <mxCell id="E8sl169XmfHfBf8Qk7qb-3" value="" style="shape=partialRectangle;collapsible=0;dropTarget=0;pointerEvents=0;fillColor=none;top=0;left=0;bottom=1;right=0;points=[[0,0.5],[1,0.5]];portConstraint=eastwest;" vertex="1" parent="E8sl169XmfHfBf8Qk7qb-2">
          <mxGeometry y="30" width="180" height="30" as="geometry" />
        </mxCell>
        <mxCell id="E8sl169XmfHfBf8Qk7qb-4" value="PK" style="shape=partialRectangle;connectable=0;fillColor=none;top=0;left=0;bottom=0;right=0;fontStyle=1;overflow=hidden;" vertex="1" parent="E8sl169XmfHfBf8Qk7qb-3">
          <mxGeometry width="30" height="30" as="geometry">
            <mxRectangle width="30" height="30" as="alternateBounds" />
          </mxGeometry>
        </mxCell>
        <mxCell id="E8sl169XmfHfBf8Qk7qb-5" value="numeroProjet : int " style="shape=partialRectangle;connectable=0;fillColor=none;top=0;left=0;bottom=0;right=0;align=left;spacingLeft=6;fontStyle=5;overflow=hidden;" vertex="1" parent="E8sl169XmfHfBf8Qk7qb-3">
          <mxGeometry x="30" width="150" height="30" as="geometry">
            <mxRectangle width="150" height="30" as="alternateBounds" />
          </mxGeometry>
        </mxCell>
        <mxCell id="E8sl169XmfHfBf8Qk7qb-6" value="" style="shape=partialRectangle;collapsible=0;dropTarget=0;pointerEvents=0;fillColor=none;top=0;left=0;bottom=0;right=0;points=[[0,0.5],[1,0.5]];portConstraint=eastwest;" vertex="1" parent="E8sl169XmfHfBf8Qk7qb-2">
          <mxGeometry y="60" width="180" height="30" as="geometry" />
        </mxCell>
        <mxCell id="E8sl169XmfHfBf8Qk7qb-7" value="" style="shape=partialRectangle;connectable=0;fillColor=none;top=0;left=0;bottom=0;right=0;editable=1;overflow=hidden;" vertex="1" parent="E8sl169XmfHfBf8Qk7qb-6">
          <mxGeometry width="30" height="30" as="geometry">
            <mxRectangle width="30" height="30" as="alternateBounds" />
          </mxGeometry>
        </mxCell>
        <mxCell id="E8sl169XmfHfBf8Qk7qb-8" value="budgetProjet : float " style="shape=partialRectangle;connectable=0;fillColor=none;top=0;left=0;bottom=0;right=0;align=left;spacingLeft=6;overflow=hidden;" vertex="1" parent="E8sl169XmfHfBf8Qk7qb-6">
          <mxGeometry x="30" width="150" height="30" as="geometry">
            <mxRectangle width="150" height="30" as="alternateBounds" />
          </mxGeometry>
        </mxCell>
        <mxCell id="E8sl169XmfHfBf8Qk7qb-9" value="" style="shape=partialRectangle;collapsible=0;dropTarget=0;pointerEvents=0;fillColor=none;top=0;left=0;bottom=0;right=0;points=[[0,0.5],[1,0.5]];portConstraint=eastwest;" vertex="1" parent="E8sl169XmfHfBf8Qk7qb-2">
          <mxGeometry y="90" width="180" height="30" as="geometry" />
        </mxCell>
        <mxCell id="E8sl169XmfHfBf8Qk7qb-10" value="" style="shape=partialRectangle;connectable=0;fillColor=none;top=0;left=0;bottom=0;right=0;editable=1;overflow=hidden;" vertex="1" parent="E8sl169XmfHfBf8Qk7qb-9">
          <mxGeometry width="30" height="30" as="geometry">
            <mxRectangle width="30" height="30" as="alternateBounds" />
          </mxGeometry>
        </mxCell>
        <mxCell id="E8sl169XmfHfBf8Qk7qb-11" value="nomProjet : varChar(30)" style="shape=partialRectangle;connectable=0;fillColor=none;top=0;left=0;bottom=0;right=0;align=left;spacingLeft=6;overflow=hidden;" vertex="1" parent="E8sl169XmfHfBf8Qk7qb-9">
          <mxGeometry x="30" width="150" height="30" as="geometry">
            <mxRectangle width="150" height="30" as="alternateBounds" />
          </mxGeometry>
        </mxCell>
        <mxCell id="E8sl169XmfHfBf8Qk7qb-15" value="Departement " style="shape=table;startSize=30;container=1;collapsible=1;childLayout=tableLayout;fixedRows=1;rowLines=0;fontStyle=1;align=center;resizeLast=1;hachureGap=4;pointerEvents=0;" vertex="1" parent="1">
          <mxGeometry x="680" y="720" width="220" height="190" as="geometry" />
        </mxCell>
        <mxCell id="E8sl169XmfHfBf8Qk7qb-16" value="" style="shape=partialRectangle;collapsible=0;dropTarget=0;pointerEvents=0;fillColor=none;top=0;left=0;bottom=1;right=0;points=[[0,0.5],[1,0.5]];portConstraint=eastwest;" vertex="1" parent="E8sl169XmfHfBf8Qk7qb-15">
          <mxGeometry y="30" width="220" height="30" as="geometry" />
        </mxCell>
        <mxCell id="E8sl169XmfHfBf8Qk7qb-17" value="PK" style="shape=partialRectangle;connectable=0;fillColor=none;top=0;left=0;bottom=0;right=0;fontStyle=1;overflow=hidden;" vertex="1" parent="E8sl169XmfHfBf8Qk7qb-16">
          <mxGeometry width="30" height="30" as="geometry">
            <mxRectangle width="30" height="30" as="alternateBounds" />
          </mxGeometry>
        </mxCell>
        <mxCell id="E8sl169XmfHfBf8Qk7qb-18" value="numeroDep : int " style="shape=partialRectangle;connectable=0;fillColor=none;top=0;left=0;bottom=0;right=0;align=left;spacingLeft=6;fontStyle=5;overflow=hidden;" vertex="1" parent="E8sl169XmfHfBf8Qk7qb-16">
          <mxGeometry x="30" width="190" height="30" as="geometry">
            <mxRectangle width="190" height="30" as="alternateBounds" />
          </mxGeometry>
        </mxCell>
        <mxCell id="E8sl169XmfHfBf8Qk7qb-19" value="" style="shape=partialRectangle;collapsible=0;dropTarget=0;pointerEvents=0;fillColor=none;top=0;left=0;bottom=0;right=0;points=[[0,0.5],[1,0.5]];portConstraint=eastwest;" vertex="1" parent="E8sl169XmfHfBf8Qk7qb-15">
          <mxGeometry y="60" width="220" height="30" as="geometry" />
        </mxCell>
        <mxCell id="E8sl169XmfHfBf8Qk7qb-20" value="" style="shape=partialRectangle;connectable=0;fillColor=none;top=0;left=0;bottom=0;right=0;editable=1;overflow=hidden;" vertex="1" parent="E8sl169XmfHfBf8Qk7qb-19">
          <mxGeometry width="30" height="30" as="geometry">
            <mxRectangle width="30" height="30" as="alternateBounds" />
          </mxGeometry>
        </mxCell>
        <mxCell id="E8sl169XmfHfBf8Qk7qb-21" value="budgetDep : float " style="shape=partialRectangle;connectable=0;fillColor=none;top=0;left=0;bottom=0;right=0;align=left;spacingLeft=6;overflow=hidden;" vertex="1" parent="E8sl169XmfHfBf8Qk7qb-19">
          <mxGeometry x="30" width="190" height="30" as="geometry">
            <mxRectangle width="190" height="30" as="alternateBounds" />
          </mxGeometry>
        </mxCell>
        <mxCell id="E8sl169XmfHfBf8Qk7qb-22" value="" style="shape=partialRectangle;collapsible=0;dropTarget=0;pointerEvents=0;fillColor=none;top=0;left=0;bottom=0;right=0;points=[[0,0.5],[1,0.5]];portConstraint=eastwest;" vertex="1" parent="E8sl169XmfHfBf8Qk7qb-15">
          <mxGeometry y="90" width="220" height="30" as="geometry" />
        </mxCell>
        <mxCell id="E8sl169XmfHfBf8Qk7qb-23" value="" style="shape=partialRectangle;connectable=0;fillColor=none;top=0;left=0;bottom=0;right=0;editable=1;overflow=hidden;" vertex="1" parent="E8sl169XmfHfBf8Qk7qb-22">
          <mxGeometry width="30" height="30" as="geometry">
            <mxRectangle width="30" height="30" as="alternateBounds" />
          </mxGeometry>
        </mxCell>
        <mxCell id="E8sl169XmfHfBf8Qk7qb-24" value="nomDep : varChar(30)" style="shape=partialRectangle;connectable=0;fillColor=none;top=0;left=0;bottom=0;right=0;align=left;spacingLeft=6;overflow=hidden;" vertex="1" parent="E8sl169XmfHfBf8Qk7qb-22">
          <mxGeometry x="30" width="190" height="30" as="geometry">
            <mxRectangle width="190" height="30" as="alternateBounds" />
          </mxGeometry>
        </mxCell>
        <mxCell id="E8sl169XmfHfBf8Qk7qb-28" value="Bureau " style="shape=table;startSize=30;container=1;collapsible=1;childLayout=tableLayout;fixedRows=1;rowLines=0;fontStyle=1;align=center;resizeLast=1;hachureGap=4;pointerEvents=0;" vertex="1" parent="1">
          <mxGeometry x="690" y="990" width="180" height="150" as="geometry" />
        </mxCell>
        <mxCell id="E8sl169XmfHfBf8Qk7qb-29" value="" style="shape=partialRectangle;collapsible=0;dropTarget=0;pointerEvents=0;fillColor=none;top=0;left=0;bottom=1;right=0;points=[[0,0.5],[1,0.5]];portConstraint=eastwest;" vertex="1" parent="E8sl169XmfHfBf8Qk7qb-28">
          <mxGeometry y="30" width="180" height="30" as="geometry" />
        </mxCell>
        <mxCell id="E8sl169XmfHfBf8Qk7qb-30" value="PK" style="shape=partialRectangle;connectable=0;fillColor=none;top=0;left=0;bottom=0;right=0;fontStyle=1;overflow=hidden;" vertex="1" parent="E8sl169XmfHfBf8Qk7qb-29">
          <mxGeometry width="30" height="30" as="geometry">
            <mxRectangle width="30" height="30" as="alternateBounds" />
          </mxGeometry>
        </mxCell>
        <mxCell id="E8sl169XmfHfBf8Qk7qb-31" value="numeroBur : int" style="shape=partialRectangle;connectable=0;fillColor=none;top=0;left=0;bottom=0;right=0;align=left;spacingLeft=6;fontStyle=5;overflow=hidden;" vertex="1" parent="E8sl169XmfHfBf8Qk7qb-29">
          <mxGeometry x="30" width="150" height="30" as="geometry">
            <mxRectangle width="150" height="30" as="alternateBounds" />
          </mxGeometry>
        </mxCell>
        <mxCell id="E8sl169XmfHfBf8Qk7qb-32" value="" style="shape=partialRectangle;collapsible=0;dropTarget=0;pointerEvents=0;fillColor=none;top=0;left=0;bottom=0;right=0;points=[[0,0.5],[1,0.5]];portConstraint=eastwest;" vertex="1" parent="E8sl169XmfHfBf8Qk7qb-28">
          <mxGeometry y="60" width="180" height="30" as="geometry" />
        </mxCell>
        <mxCell id="E8sl169XmfHfBf8Qk7qb-33" value="" style="shape=partialRectangle;connectable=0;fillColor=none;top=0;left=0;bottom=0;right=0;editable=1;overflow=hidden;" vertex="1" parent="E8sl169XmfHfBf8Qk7qb-32">
          <mxGeometry width="30" height="30" as="geometry">
            <mxRectangle width="30" height="30" as="alternateBounds" />
          </mxGeometry>
        </mxCell>
        <mxCell id="E8sl169XmfHfBf8Qk7qb-34" value="surfaceM2 : float (N)" style="shape=partialRectangle;connectable=0;fillColor=none;top=0;left=0;bottom=0;right=0;align=left;spacingLeft=6;overflow=hidden;" vertex="1" parent="E8sl169XmfHfBf8Qk7qb-32">
          <mxGeometry x="30" width="150" height="30" as="geometry">
            <mxRectangle width="150" height="30" as="alternateBounds" />
          </mxGeometry>
        </mxCell>
        <mxCell id="E8sl169XmfHfBf8Qk7qb-35" value="" style="shape=partialRectangle;collapsible=0;dropTarget=0;pointerEvents=0;fillColor=none;top=0;left=0;bottom=0;right=0;points=[[0,0.5],[1,0.5]];portConstraint=eastwest;" vertex="1" parent="E8sl169XmfHfBf8Qk7qb-28">
          <mxGeometry y="90" width="180" height="20" as="geometry" />
        </mxCell>
        <mxCell id="E8sl169XmfHfBf8Qk7qb-36" value="" style="shape=partialRectangle;connectable=0;fillColor=none;top=0;left=0;bottom=0;right=0;editable=1;overflow=hidden;" vertex="1" parent="E8sl169XmfHfBf8Qk7qb-35">
          <mxGeometry width="30" height="20" as="geometry">
            <mxRectangle width="30" height="20" as="alternateBounds" />
          </mxGeometry>
        </mxCell>
        <mxCell id="E8sl169XmfHfBf8Qk7qb-37" value="numeroDep : int " style="shape=partialRectangle;connectable=0;fillColor=none;top=0;left=0;bottom=0;right=0;align=left;spacingLeft=6;overflow=hidden;fontStyle=1;fontColor=#FF0000;" vertex="1" parent="E8sl169XmfHfBf8Qk7qb-35">
          <mxGeometry x="30" width="150" height="20" as="geometry">
            <mxRectangle width="150" height="20" as="alternateBounds" />
          </mxGeometry>
        </mxCell>
        <mxCell id="E8sl169XmfHfBf8Qk7qb-38" value="" style="shape=partialRectangle;collapsible=0;dropTarget=0;pointerEvents=0;fillColor=none;top=0;left=0;bottom=0;right=0;points=[[0,0.5],[1,0.5]];portConstraint=eastwest;" vertex="1" parent="E8sl169XmfHfBf8Qk7qb-28">
          <mxGeometry y="110" width="180" height="30" as="geometry" />
        </mxCell>
        <mxCell id="E8sl169XmfHfBf8Qk7qb-39" value="" style="shape=partialRectangle;connectable=0;fillColor=none;top=0;left=0;bottom=0;right=0;editable=1;overflow=hidden;" vertex="1" parent="E8sl169XmfHfBf8Qk7qb-38">
          <mxGeometry width="30" height="30" as="geometry">
            <mxRectangle width="30" height="30" as="alternateBounds" />
          </mxGeometry>
        </mxCell>
        <mxCell id="E8sl169XmfHfBf8Qk7qb-40" value="" style="shape=partialRectangle;connectable=0;fillColor=none;top=0;left=0;bottom=0;right=0;align=left;spacingLeft=6;overflow=hidden;" vertex="1" parent="E8sl169XmfHfBf8Qk7qb-38">
          <mxGeometry x="30" width="150" height="30" as="geometry">
            <mxRectangle width="150" height="30" as="alternateBounds" />
          </mxGeometry>
        </mxCell>
        <mxCell id="E8sl169XmfHfBf8Qk7qb-41" value="Poste " style="shape=table;startSize=30;container=1;collapsible=1;childLayout=tableLayout;fixedRows=1;rowLines=0;fontStyle=1;align=center;resizeLast=1;hachureGap=4;pointerEvents=0;" vertex="1" parent="1">
          <mxGeometry x="234" y="1020" width="180" height="100" as="geometry" />
        </mxCell>
        <mxCell id="E8sl169XmfHfBf8Qk7qb-42" value="" style="shape=partialRectangle;collapsible=0;dropTarget=0;pointerEvents=0;fillColor=none;top=0;left=0;bottom=1;right=0;points=[[0,0.5],[1,0.5]];portConstraint=eastwest;" vertex="1" parent="E8sl169XmfHfBf8Qk7qb-41">
          <mxGeometry y="30" width="180" height="30" as="geometry" />
        </mxCell>
        <mxCell id="E8sl169XmfHfBf8Qk7qb-43" value="PK" style="shape=partialRectangle;connectable=0;fillColor=none;top=0;left=0;bottom=0;right=0;fontStyle=1;overflow=hidden;" vertex="1" parent="E8sl169XmfHfBf8Qk7qb-42">
          <mxGeometry width="30" height="30" as="geometry">
            <mxRectangle width="30" height="30" as="alternateBounds" />
          </mxGeometry>
        </mxCell>
        <mxCell id="E8sl169XmfHfBf8Qk7qb-44" value="numeroAppel : varChar(30) " style="shape=partialRectangle;connectable=0;fillColor=none;top=0;left=0;bottom=0;right=0;align=left;spacingLeft=6;fontStyle=5;overflow=hidden;" vertex="1" parent="E8sl169XmfHfBf8Qk7qb-42">
          <mxGeometry x="30" width="150" height="30" as="geometry">
            <mxRectangle width="150" height="30" as="alternateBounds" />
          </mxGeometry>
        </mxCell>
        <mxCell id="E8sl169XmfHfBf8Qk7qb-51" value="" style="shape=partialRectangle;collapsible=0;dropTarget=0;pointerEvents=0;fillColor=none;top=0;left=0;bottom=0;right=0;points=[[0,0.5],[1,0.5]];portConstraint=eastwest;" vertex="1" parent="E8sl169XmfHfBf8Qk7qb-41">
          <mxGeometry y="60" width="180" height="30" as="geometry" />
        </mxCell>
        <mxCell id="E8sl169XmfHfBf8Qk7qb-52" value="FK" style="shape=partialRectangle;connectable=0;fillColor=none;top=0;left=0;bottom=0;right=0;editable=1;overflow=hidden;fontStyle=1;fontColor=#FF0000;" vertex="1" parent="E8sl169XmfHfBf8Qk7qb-51">
          <mxGeometry width="30" height="30" as="geometry">
            <mxRectangle width="30" height="30" as="alternateBounds" />
          </mxGeometry>
        </mxCell>
        <mxCell id="E8sl169XmfHfBf8Qk7qb-53" value="BurNumero : int " style="shape=partialRectangle;connectable=0;fillColor=none;top=0;left=0;bottom=0;right=0;align=left;spacingLeft=6;overflow=hidden;fontStyle=1;fontColor=#FF0000;" vertex="1" parent="E8sl169XmfHfBf8Qk7qb-51">
          <mxGeometry x="30" width="150" height="30" as="geometry">
            <mxRectangle width="150" height="30" as="alternateBounds" />
          </mxGeometry>
        </mxCell>
        <mxCell id="E8sl169XmfHfBf8Qk7qb-54" value="TypeFonction" style="shape=table;startSize=30;container=1;collapsible=1;childLayout=tableLayout;fixedRows=1;rowLines=0;fontStyle=1;align=center;resizeLast=1;hachureGap=4;pointerEvents=0;" vertex="1" parent="1">
          <mxGeometry x="234" y="1210" width="180" height="160" as="geometry" />
        </mxCell>
        <mxCell id="E8sl169XmfHfBf8Qk7qb-55" value="" style="shape=partialRectangle;collapsible=0;dropTarget=0;pointerEvents=0;fillColor=none;top=0;left=0;bottom=1;right=0;points=[[0,0.5],[1,0.5]];portConstraint=eastwest;" vertex="1" parent="E8sl169XmfHfBf8Qk7qb-54">
          <mxGeometry y="30" width="180" height="30" as="geometry" />
        </mxCell>
        <mxCell id="E8sl169XmfHfBf8Qk7qb-56" value="PK" style="shape=partialRectangle;connectable=0;fillColor=none;top=0;left=0;bottom=0;right=0;fontStyle=1;overflow=hidden;" vertex="1" parent="E8sl169XmfHfBf8Qk7qb-55">
          <mxGeometry width="30" height="30" as="geometry">
            <mxRectangle width="30" height="30" as="alternateBounds" />
          </mxGeometry>
        </mxCell>
        <mxCell id="E8sl169XmfHfBf8Qk7qb-57" value="numeroType : int " style="shape=partialRectangle;connectable=0;fillColor=none;top=0;left=0;bottom=0;right=0;align=left;spacingLeft=6;fontStyle=5;overflow=hidden;" vertex="1" parent="E8sl169XmfHfBf8Qk7qb-55">
          <mxGeometry x="30" width="150" height="30" as="geometry">
            <mxRectangle width="150" height="30" as="alternateBounds" />
          </mxGeometry>
        </mxCell>
        <mxCell id="E8sl169XmfHfBf8Qk7qb-58" value="" style="shape=partialRectangle;collapsible=0;dropTarget=0;pointerEvents=0;fillColor=none;top=0;left=0;bottom=0;right=0;points=[[0,0.5],[1,0.5]];portConstraint=eastwest;" vertex="1" parent="E8sl169XmfHfBf8Qk7qb-54">
          <mxGeometry y="60" width="180" height="30" as="geometry" />
        </mxCell>
        <mxCell id="E8sl169XmfHfBf8Qk7qb-59" value="" style="shape=partialRectangle;connectable=0;fillColor=none;top=0;left=0;bottom=0;right=0;editable=1;overflow=hidden;" vertex="1" parent="E8sl169XmfHfBf8Qk7qb-58">
          <mxGeometry width="30" height="30" as="geometry">
            <mxRectangle width="30" height="30" as="alternateBounds" />
          </mxGeometry>
        </mxCell>
        <mxCell id="E8sl169XmfHfBf8Qk7qb-60" value="nomFonction : varChar(30)" style="shape=partialRectangle;connectable=0;fillColor=none;top=0;left=0;bottom=0;right=0;align=left;spacingLeft=6;overflow=hidden;" vertex="1" parent="E8sl169XmfHfBf8Qk7qb-58">
          <mxGeometry x="30" width="150" height="30" as="geometry">
            <mxRectangle width="150" height="30" as="alternateBounds" />
          </mxGeometry>
        </mxCell>
        <mxCell id="E8sl169XmfHfBf8Qk7qb-61" value="" style="shape=partialRectangle;collapsible=0;dropTarget=0;pointerEvents=0;fillColor=none;top=0;left=0;bottom=0;right=0;points=[[0,0.5],[1,0.5]];portConstraint=eastwest;" vertex="1" parent="E8sl169XmfHfBf8Qk7qb-54">
          <mxGeometry y="90" width="180" height="30" as="geometry" />
        </mxCell>
        <mxCell id="E8sl169XmfHfBf8Qk7qb-62" value="" style="shape=partialRectangle;connectable=0;fillColor=none;top=0;left=0;bottom=0;right=0;editable=1;overflow=hidden;" vertex="1" parent="E8sl169XmfHfBf8Qk7qb-61">
          <mxGeometry width="30" height="30" as="geometry">
            <mxRectangle width="30" height="30" as="alternateBounds" />
          </mxGeometry>
        </mxCell>
        <mxCell id="E8sl169XmfHfBf8Qk7qb-63" value="salaireMin : float " style="shape=partialRectangle;connectable=0;fillColor=none;top=0;left=0;bottom=0;right=0;align=left;spacingLeft=6;overflow=hidden;" vertex="1" parent="E8sl169XmfHfBf8Qk7qb-61">
          <mxGeometry x="30" width="150" height="30" as="geometry">
            <mxRectangle width="150" height="30" as="alternateBounds" />
          </mxGeometry>
        </mxCell>
        <mxCell id="E8sl169XmfHfBf8Qk7qb-64" value="" style="shape=partialRectangle;collapsible=0;dropTarget=0;pointerEvents=0;fillColor=none;top=0;left=0;bottom=0;right=0;points=[[0,0.5],[1,0.5]];portConstraint=eastwest;" vertex="1" parent="E8sl169XmfHfBf8Qk7qb-54">
          <mxGeometry y="120" width="180" height="30" as="geometry" />
        </mxCell>
        <mxCell id="E8sl169XmfHfBf8Qk7qb-65" value="" style="shape=partialRectangle;connectable=0;fillColor=none;top=0;left=0;bottom=0;right=0;editable=1;overflow=hidden;" vertex="1" parent="E8sl169XmfHfBf8Qk7qb-64">
          <mxGeometry width="30" height="30" as="geometry">
            <mxRectangle width="30" height="30" as="alternateBounds" />
          </mxGeometry>
        </mxCell>
        <mxCell id="E8sl169XmfHfBf8Qk7qb-66" value="salaireMin : float " style="shape=partialRectangle;connectable=0;fillColor=none;top=0;left=0;bottom=0;right=0;align=left;spacingLeft=6;overflow=hidden;" vertex="1" parent="E8sl169XmfHfBf8Qk7qb-64">
          <mxGeometry x="30" width="150" height="30" as="geometry">
            <mxRectangle width="150" height="30" as="alternateBounds" />
          </mxGeometry>
        </mxCell>
        <mxCell id="E8sl169XmfHfBf8Qk7qb-67" value="Fonction" style="shape=table;startSize=30;container=1;collapsible=1;childLayout=tableLayout;fixedRows=1;rowLines=0;fontStyle=1;align=center;resizeLast=1;hachureGap=4;pointerEvents=0;" vertex="1" parent="1">
          <mxGeometry x="-250" y="1110" width="290" height="220" as="geometry" />
        </mxCell>
        <mxCell id="E8sl169XmfHfBf8Qk7qb-68" value="" style="shape=partialRectangle;collapsible=0;dropTarget=0;pointerEvents=0;fillColor=none;top=0;left=0;bottom=1;right=0;points=[[0,0.5],[1,0.5]];portConstraint=eastwest;" vertex="1" parent="E8sl169XmfHfBf8Qk7qb-67">
          <mxGeometry y="30" width="290" height="30" as="geometry" />
        </mxCell>
        <mxCell id="E8sl169XmfHfBf8Qk7qb-69" value="PK" style="shape=partialRectangle;connectable=0;fillColor=none;top=0;left=0;bottom=0;right=0;fontStyle=1;overflow=hidden;" vertex="1" parent="E8sl169XmfHfBf8Qk7qb-68">
          <mxGeometry width="60" height="30" as="geometry">
            <mxRectangle width="60" height="30" as="alternateBounds" />
          </mxGeometry>
        </mxCell>
        <mxCell id="E8sl169XmfHfBf8Qk7qb-70" value="numFonc : int " style="shape=partialRectangle;connectable=0;fillColor=none;top=0;left=0;bottom=0;right=0;align=left;spacingLeft=6;fontStyle=5;overflow=hidden;" vertex="1" parent="E8sl169XmfHfBf8Qk7qb-68">
          <mxGeometry x="60" width="230" height="30" as="geometry">
            <mxRectangle width="230" height="30" as="alternateBounds" />
          </mxGeometry>
        </mxCell>
        <mxCell id="E8sl169XmfHfBf8Qk7qb-71" value="" style="shape=partialRectangle;collapsible=0;dropTarget=0;pointerEvents=0;fillColor=none;top=0;left=0;bottom=0;right=0;points=[[0,0.5],[1,0.5]];portConstraint=eastwest;" vertex="1" parent="E8sl169XmfHfBf8Qk7qb-67">
          <mxGeometry y="60" width="290" height="30" as="geometry" />
        </mxCell>
        <mxCell id="E8sl169XmfHfBf8Qk7qb-72" value="" style="shape=partialRectangle;connectable=0;fillColor=none;top=0;left=0;bottom=0;right=0;editable=1;overflow=hidden;" vertex="1" parent="E8sl169XmfHfBf8Qk7qb-71">
          <mxGeometry width="60" height="30" as="geometry">
            <mxRectangle width="60" height="30" as="alternateBounds" />
          </mxGeometry>
        </mxCell>
        <mxCell id="E8sl169XmfHfBf8Qk7qb-73" value="salaireInit : int" style="shape=partialRectangle;connectable=0;fillColor=none;top=0;left=0;bottom=0;right=0;align=left;spacingLeft=6;overflow=hidden;" vertex="1" parent="E8sl169XmfHfBf8Qk7qb-71">
          <mxGeometry x="60" width="230" height="30" as="geometry">
            <mxRectangle width="230" height="30" as="alternateBounds" />
          </mxGeometry>
        </mxCell>
        <mxCell id="E8sl169XmfHfBf8Qk7qb-74" value="" style="shape=partialRectangle;collapsible=0;dropTarget=0;pointerEvents=0;fillColor=none;top=0;left=0;bottom=0;right=0;points=[[0,0.5],[1,0.5]];portConstraint=eastwest;" vertex="1" parent="E8sl169XmfHfBf8Qk7qb-67">
          <mxGeometry y="90" width="290" height="30" as="geometry" />
        </mxCell>
        <mxCell id="E8sl169XmfHfBf8Qk7qb-75" value="" style="shape=partialRectangle;connectable=0;fillColor=none;top=0;left=0;bottom=0;right=0;editable=1;overflow=hidden;" vertex="1" parent="E8sl169XmfHfBf8Qk7qb-74">
          <mxGeometry width="60" height="30" as="geometry">
            <mxRectangle width="60" height="30" as="alternateBounds" />
          </mxGeometry>
        </mxCell>
        <mxCell id="E8sl169XmfHfBf8Qk7qb-76" value="dateDebut : Date " style="shape=partialRectangle;connectable=0;fillColor=none;top=0;left=0;bottom=0;right=0;align=left;spacingLeft=6;overflow=hidden;" vertex="1" parent="E8sl169XmfHfBf8Qk7qb-74">
          <mxGeometry x="60" width="230" height="30" as="geometry">
            <mxRectangle width="230" height="30" as="alternateBounds" />
          </mxGeometry>
        </mxCell>
        <mxCell id="E8sl169XmfHfBf8Qk7qb-77" value="" style="shape=partialRectangle;collapsible=0;dropTarget=0;pointerEvents=0;fillColor=none;top=0;left=0;bottom=0;right=0;points=[[0,0.5],[1,0.5]];portConstraint=eastwest;" vertex="1" parent="E8sl169XmfHfBf8Qk7qb-67">
          <mxGeometry y="120" width="290" height="30" as="geometry" />
        </mxCell>
        <mxCell id="E8sl169XmfHfBf8Qk7qb-78" value="" style="shape=partialRectangle;connectable=0;fillColor=none;top=0;left=0;bottom=0;right=0;editable=1;overflow=hidden;" vertex="1" parent="E8sl169XmfHfBf8Qk7qb-77">
          <mxGeometry width="60" height="30" as="geometry">
            <mxRectangle width="60" height="30" as="alternateBounds" />
          </mxGeometry>
        </mxCell>
        <mxCell id="E8sl169XmfHfBf8Qk7qb-79" value="dateFin : Date " style="shape=partialRectangle;connectable=0;fillColor=none;top=0;left=0;bottom=0;right=0;align=left;spacingLeft=6;overflow=hidden;" vertex="1" parent="E8sl169XmfHfBf8Qk7qb-77">
          <mxGeometry x="60" width="230" height="30" as="geometry">
            <mxRectangle width="230" height="30" as="alternateBounds" />
          </mxGeometry>
        </mxCell>
        <mxCell id="E8sl169XmfHfBf8Qk7qb-80" value="Employe" style="shape=table;startSize=30;container=1;collapsible=1;childLayout=tableLayout;fixedRows=1;rowLines=0;fontStyle=1;align=center;resizeLast=1;hachureGap=4;pointerEvents=0;" vertex="1" parent="1">
          <mxGeometry x="-6" y="730" width="220" height="230" as="geometry" />
        </mxCell>
        <mxCell id="E8sl169XmfHfBf8Qk7qb-81" value="" style="shape=partialRectangle;collapsible=0;dropTarget=0;pointerEvents=0;fillColor=none;top=0;left=0;bottom=1;right=0;points=[[0,0.5],[1,0.5]];portConstraint=eastwest;" vertex="1" parent="E8sl169XmfHfBf8Qk7qb-80">
          <mxGeometry y="30" width="220" height="30" as="geometry" />
        </mxCell>
        <mxCell id="E8sl169XmfHfBf8Qk7qb-82" value="PK" style="shape=partialRectangle;connectable=0;fillColor=none;top=0;left=0;bottom=0;right=0;fontStyle=1;overflow=hidden;" vertex="1" parent="E8sl169XmfHfBf8Qk7qb-81">
          <mxGeometry width="30" height="30" as="geometry">
            <mxRectangle width="30" height="30" as="alternateBounds" />
          </mxGeometry>
        </mxCell>
        <mxCell id="E8sl169XmfHfBf8Qk7qb-83" value="numeroMatricule : varChar(30)" style="shape=partialRectangle;connectable=0;fillColor=none;top=0;left=0;bottom=0;right=0;align=left;spacingLeft=6;fontStyle=5;overflow=hidden;" vertex="1" parent="E8sl169XmfHfBf8Qk7qb-81">
          <mxGeometry x="30" width="190" height="30" as="geometry">
            <mxRectangle width="190" height="30" as="alternateBounds" />
          </mxGeometry>
        </mxCell>
        <mxCell id="E8sl169XmfHfBf8Qk7qb-84" value="" style="shape=partialRectangle;collapsible=0;dropTarget=0;pointerEvents=0;fillColor=none;top=0;left=0;bottom=0;right=0;points=[[0,0.5],[1,0.5]];portConstraint=eastwest;" vertex="1" parent="E8sl169XmfHfBf8Qk7qb-80">
          <mxGeometry y="60" width="220" height="30" as="geometry" />
        </mxCell>
        <mxCell id="E8sl169XmfHfBf8Qk7qb-85" value="" style="shape=partialRectangle;connectable=0;fillColor=none;top=0;left=0;bottom=0;right=0;editable=1;overflow=hidden;" vertex="1" parent="E8sl169XmfHfBf8Qk7qb-84">
          <mxGeometry width="30" height="30" as="geometry">
            <mxRectangle width="30" height="30" as="alternateBounds" />
          </mxGeometry>
        </mxCell>
        <mxCell id="E8sl169XmfHfBf8Qk7qb-86" value="nomEmpl : varChar(30)" style="shape=partialRectangle;connectable=0;fillColor=none;top=0;left=0;bottom=0;right=0;align=left;spacingLeft=6;overflow=hidden;" vertex="1" parent="E8sl169XmfHfBf8Qk7qb-84">
          <mxGeometry x="30" width="190" height="30" as="geometry">
            <mxRectangle width="190" height="30" as="alternateBounds" />
          </mxGeometry>
        </mxCell>
        <mxCell id="E8sl169XmfHfBf8Qk7qb-87" value="" style="shape=partialRectangle;collapsible=0;dropTarget=0;pointerEvents=0;fillColor=none;top=0;left=0;bottom=0;right=0;points=[[0,0.5],[1,0.5]];portConstraint=eastwest;" vertex="1" parent="E8sl169XmfHfBf8Qk7qb-80">
          <mxGeometry y="90" width="220" height="60" as="geometry" />
        </mxCell>
        <mxCell id="E8sl169XmfHfBf8Qk7qb-88" value="" style="shape=partialRectangle;connectable=0;fillColor=none;top=0;left=0;bottom=0;right=0;editable=1;overflow=hidden;" vertex="1" parent="E8sl169XmfHfBf8Qk7qb-87">
          <mxGeometry width="30" height="60" as="geometry">
            <mxRectangle width="30" height="60" as="alternateBounds" />
          </mxGeometry>
        </mxCell>
        <mxCell id="E8sl169XmfHfBf8Qk7qb-89" value="prenomEmpl : varChar(30)" style="shape=partialRectangle;connectable=0;fillColor=none;top=0;left=0;bottom=0;right=0;align=left;spacingLeft=6;overflow=hidden;" vertex="1" parent="E8sl169XmfHfBf8Qk7qb-87">
          <mxGeometry x="30" width="190" height="60" as="geometry">
            <mxRectangle width="190" height="60" as="alternateBounds" />
          </mxGeometry>
        </mxCell>
        <mxCell id="E8sl169XmfHfBf8Qk7qb-93" value="estAffecte" style="shape=table;startSize=30;container=1;collapsible=1;childLayout=tableLayout;fixedRows=1;rowLines=0;fontStyle=1;align=center;resizeLast=1;hachureGap=4;pointerEvents=0;" vertex="1" parent="1">
          <mxGeometry x="-76" y="450" width="360" height="100" as="geometry" />
        </mxCell>
        <mxCell id="E8sl169XmfHfBf8Qk7qb-94" value="" style="shape=partialRectangle;collapsible=0;dropTarget=0;pointerEvents=0;fillColor=none;top=0;left=0;bottom=1;right=0;points=[[0,0.5],[1,0.5]];portConstraint=eastwest;" vertex="1" parent="E8sl169XmfHfBf8Qk7qb-93">
          <mxGeometry y="30" width="360" height="60" as="geometry" />
        </mxCell>
        <mxCell id="E8sl169XmfHfBf8Qk7qb-95" value="PK FK &#xa;PK FK" style="shape=partialRectangle;connectable=0;fillColor=none;top=0;left=0;bottom=0;right=0;fontStyle=1;overflow=hidden;fontColor=#FF0000;" vertex="1" parent="E8sl169XmfHfBf8Qk7qb-94">
          <mxGeometry width="80" height="60" as="geometry">
            <mxRectangle width="80" height="60" as="alternateBounds" />
          </mxGeometry>
        </mxCell>
        <mxCell id="E8sl169XmfHfBf8Qk7qb-96" value="numeroProjet : int&#xa;numeroMatricule : varChar(30)  " style="shape=partialRectangle;connectable=0;fillColor=none;top=0;left=0;bottom=0;right=0;align=left;spacingLeft=6;fontStyle=5;overflow=hidden;fontColor=#FF0000;" vertex="1" parent="E8sl169XmfHfBf8Qk7qb-94">
          <mxGeometry x="80" width="280" height="60" as="geometry">
            <mxRectangle width="280" height="60" as="alternateBounds" />
          </mxGeometry>
        </mxCell>
        <mxCell id="E8sl169XmfHfBf8Qk7qb-106" value="" style="endArrow=ERzeroToMany;html=1;startSize=14;endSize=14;sourcePerimeterSpacing=8;targetPerimeterSpacing=8;startArrow=ERmandOne;startFill=0;endFill=0;" edge="1" parent="1" source="E8sl169XmfHfBf8Qk7qb-80" target="E8sl169XmfHfBf8Qk7qb-93">
          <mxGeometry width="50" height="50" relative="1" as="geometry">
            <mxPoint x="50" y="680" as="sourcePoint" />
            <mxPoint x="100" y="630" as="targetPoint" />
          </mxGeometry>
        </mxCell>
        <mxCell id="E8sl169XmfHfBf8Qk7qb-107" value="" style="endArrow=ERmandOne;html=1;startSize=14;endSize=14;sourcePerimeterSpacing=8;targetPerimeterSpacing=8;startArrow=ERzeroToMany;startFill=1;endFill=0;" edge="1" parent="1" source="E8sl169XmfHfBf8Qk7qb-93" target="E8sl169XmfHfBf8Qk7qb-2">
          <mxGeometry width="50" height="50" relative="1" as="geometry">
            <mxPoint x="350" y="500" as="sourcePoint" />
            <mxPoint x="400" y="450" as="targetPoint" />
          </mxGeometry>
        </mxCell>
        <mxCell id="E8sl169XmfHfBf8Qk7qb-108" value="" style="endArrow=ERmandOne;dashed=1;html=1;startSize=14;endSize=14;sourcePerimeterSpacing=8;targetPerimeterSpacing=8;startArrow=ERzeroToMany;startFill=1;endFill=0;" edge="1" parent="1" source="E8sl169XmfHfBf8Qk7qb-80" target="E8sl169XmfHfBf8Qk7qb-15">
          <mxGeometry width="50" height="50" relative="1" as="geometry">
            <mxPoint x="260" y="800" as="sourcePoint" />
            <mxPoint x="310" y="750" as="targetPoint" />
          </mxGeometry>
        </mxCell>
        <mxCell id="E8sl169XmfHfBf8Qk7qb-109" value="" style="endArrow=ERzeroToOne;dashed=1;html=1;startSize=14;endSize=14;sourcePerimeterSpacing=8;targetPerimeterSpacing=8;exitX=1;exitY=0.5;exitDx=0;exitDy=0;entryX=-0.012;entryY=0.88;entryDx=0;entryDy=0;entryPerimeter=0;startArrow=ERmandOne;startFill=0;endFill=0;" edge="1" parent="1" source="E8sl169XmfHfBf8Qk7qb-87" target="E8sl169XmfHfBf8Qk7qb-22">
          <mxGeometry width="50" height="50" relative="1" as="geometry">
            <mxPoint x="320" y="860" as="sourcePoint" />
            <mxPoint x="370" y="810" as="targetPoint" />
            <Array as="points" />
          </mxGeometry>
        </mxCell>
        <mxCell id="E8sl169XmfHfBf8Qk7qb-110" value="" style="endArrow=ERzeroToMany;dashed=1;html=1;startSize=14;endSize=14;sourcePerimeterSpacing=8;targetPerimeterSpacing=8;startArrow=ERmandOne;startFill=0;endFill=0;" edge="1" parent="1" source="E8sl169XmfHfBf8Qk7qb-41" target="E8sl169XmfHfBf8Qk7qb-80">
          <mxGeometry width="50" height="50" relative="1" as="geometry">
            <mxPoint x="160" y="940" as="sourcePoint" />
            <mxPoint x="210" y="890" as="targetPoint" />
          </mxGeometry>
        </mxCell>
        <mxCell id="E8sl169XmfHfBf8Qk7qb-111" value="" style="endArrow=ERmandOne;dashed=1;html=1;startSize=14;endSize=14;sourcePerimeterSpacing=8;targetPerimeterSpacing=8;startArrow=ERoneToMany;startFill=0;endFill=0;" edge="1" parent="1" source="E8sl169XmfHfBf8Qk7qb-67" target="E8sl169XmfHfBf8Qk7qb-80">
          <mxGeometry width="50" height="50" relative="1" as="geometry">
            <mxPoint x="-130" y="970" as="sourcePoint" />
            <mxPoint x="-80" y="920" as="targetPoint" />
          </mxGeometry>
        </mxCell>
        <mxCell id="E8sl169XmfHfBf8Qk7qb-112" value="" style="endArrow=ERmandOne;html=1;startSize=14;endSize=14;sourcePerimeterSpacing=8;targetPerimeterSpacing=8;startArrow=ERzeroToMany;startFill=1;endFill=0;" edge="1" parent="1" source="E8sl169XmfHfBf8Qk7qb-67" target="E8sl169XmfHfBf8Qk7qb-54">
          <mxGeometry width="50" height="50" relative="1" as="geometry">
            <mxPoint x="80" y="1220" as="sourcePoint" />
            <mxPoint x="130" y="1170" as="targetPoint" />
          </mxGeometry>
        </mxCell>
        <mxCell id="E8sl169XmfHfBf8Qk7qb-113" value="" style="endArrow=ERmandOne;dashed=1;html=1;startSize=14;endSize=14;sourcePerimeterSpacing=8;targetPerimeterSpacing=8;startArrow=ERzeroToMany;startFill=1;endFill=0;" edge="1" parent="1" source="E8sl169XmfHfBf8Qk7qb-41" target="E8sl169XmfHfBf8Qk7qb-28">
          <mxGeometry width="50" height="50" relative="1" as="geometry">
            <mxPoint x="570" y="1100" as="sourcePoint" />
            <mxPoint x="620" y="1050" as="targetPoint" />
          </mxGeometry>
        </mxCell>
        <mxCell id="E8sl169XmfHfBf8Qk7qb-114" value="" style="endArrow=ERmandOne;dashed=1;html=1;startSize=14;endSize=14;sourcePerimeterSpacing=8;targetPerimeterSpacing=8;startArrow=ERzeroToMany;startFill=1;endFill=0;" edge="1" parent="1" source="E8sl169XmfHfBf8Qk7qb-28" target="E8sl169XmfHfBf8Qk7qb-15">
          <mxGeometry width="50" height="50" relative="1" as="geometry">
            <mxPoint x="680" y="960" as="sourcePoint" />
            <mxPoint x="730" y="910" as="targetPoint" />
          </mxGeometry>
        </mxCell>
        <mxCell id="E8sl169XmfHfBf8Qk7qb-115" value="" style="endArrow=ERzeroToMany;dashed=1;html=1;startSize=14;endSize=14;sourcePerimeterSpacing=8;targetPerimeterSpacing=8;startArrow=ERmandOne;startFill=0;endFill=0;" edge="1" parent="1" source="E8sl169XmfHfBf8Qk7qb-15" target="E8sl169XmfHfBf8Qk7qb-2">
          <mxGeometry width="50" height="50" relative="1" as="geometry">
            <mxPoint x="710" y="680" as="sourcePoint" />
            <mxPoint x="760" y="630" as="targetPoint" />
          </mxGeometry>
        </mxCell>
        <mxCell id="E8sl169XmfHfBf8Qk7qb-119" value="numeroDep : int " style="shape=partialRectangle;connectable=0;fillColor=none;top=0;left=0;bottom=0;right=0;align=left;spacingLeft=6;overflow=hidden;fontStyle=1;strokeColor=#FF0000;fontColor=#FF0000;" vertex="1" parent="1">
          <mxGeometry x="30" y="860" width="190" height="60" as="geometry">
            <mxRectangle width="190" height="60" as="alternateBounds" />
          </mxGeometry>
        </mxCell>
        <mxCell id="E8sl169XmfHfBf8Qk7qb-120" value="FK" style="text;html=1;strokeColor=none;fillColor=none;align=center;verticalAlign=middle;whiteSpace=wrap;rounded=0;hachureGap=4;pointerEvents=0;fontColor=#FF0000;" vertex="1" parent="1">
          <mxGeometry x="-10" y="880" width="40" height="20" as="geometry" />
        </mxCell>
        <mxCell id="E8sl169XmfHfBf8Qk7qb-122" value="matriculeNumero : varChar(30)" style="shape=partialRectangle;connectable=0;fillColor=none;top=0;left=0;bottom=0;right=0;align=left;spacingLeft=6;overflow=hidden;fontStyle=1;fontColor=#FF0000;" vertex="1" parent="1">
          <mxGeometry x="-170" y="1260" width="210" height="30" as="geometry">
            <mxRectangle width="210" height="30" as="alternateBounds" />
          </mxGeometry>
        </mxCell>
        <mxCell id="E8sl169XmfHfBf8Qk7qb-123" value="FK" style="text;html=1;strokeColor=none;fillColor=none;align=center;verticalAlign=middle;whiteSpace=wrap;rounded=0;hachureGap=4;pointerEvents=0;fontColor=#FF0000;" vertex="1" parent="1">
          <mxGeometry x="-240" y="1265" width="40" height="20" as="geometry" />
        </mxCell>
        <mxCell id="E8sl169XmfHfBf8Qk7qb-124" value="typeNumero : int " style="shape=partialRectangle;connectable=0;fillColor=none;top=0;left=0;bottom=0;right=0;align=left;spacingLeft=6;overflow=hidden;fontStyle=1;fontColor=#FF0000;" vertex="1" parent="1">
          <mxGeometry x="-170" y="1290" width="210" height="30" as="geometry">
            <mxRectangle width="210" height="30" as="alternateBounds" />
          </mxGeometry>
        </mxCell>
        <mxCell id="E8sl169XmfHfBf8Qk7qb-125" value="FK PK" style="text;html=1;strokeColor=none;fillColor=none;align=center;verticalAlign=middle;whiteSpace=wrap;rounded=0;hachureGap=4;pointerEvents=0;fontColor=#FF0000;rotation=0;" vertex="1" parent="1">
          <mxGeometry x="-240" y="1295" width="40" height="20" as="geometry" />
        </mxCell>
        <mxCell id="E8sl169XmfHfBf8Qk7qb-126" value="FK" style="text;html=1;strokeColor=none;fillColor=none;align=center;verticalAlign=middle;whiteSpace=wrap;rounded=0;hachureGap=4;pointerEvents=0;fontColor=#FF0000;" vertex="1" parent="1">
          <mxGeometry x="690" y="1080" width="40" height="20" as="geometry" />
        </mxCell>
        <mxCell id="E8sl169XmfHfBf8Qk7qb-127" value="depNumero : int " style="shape=partialRectangle;connectable=0;fillColor=none;top=0;left=0;bottom=0;right=0;align=left;spacingLeft=6;overflow=hidden;fontStyle=1;fontColor=#FF0000;" vertex="1" parent="1">
          <mxGeometry x="470" y="600" width="150" height="30" as="geometry">
            <mxRectangle width="150" height="30" as="alternateBounds" />
          </mxGeometry>
        </mxCell>
        <mxCell id="E8sl169XmfHfBf8Qk7qb-128" value="FK" style="text;html=1;strokeColor=none;fillColor=none;align=center;verticalAlign=middle;whiteSpace=wrap;rounded=0;hachureGap=4;pointerEvents=0;fontColor=#FF0000;" vertex="1" parent="1">
          <mxGeometry x="430" y="605" width="40" height="20" as="geometry" />
        </mxCell>
        <mxCell id="E8sl169XmfHfBf8Qk7qb-129" value="&lt;font color=&quot;#000000&quot;&gt;est de type&lt;/font&gt;" style="text;html=1;strokeColor=none;fillColor=none;align=center;verticalAlign=middle;whiteSpace=wrap;rounded=0;hachureGap=4;pointerEvents=0;fontColor=#FF0000;" vertex="1" parent="1">
          <mxGeometry x="110" y="1230" width="40" height="20" as="geometry" />
        </mxCell>
        <mxCell id="E8sl169XmfHfBf8Qk7qb-130" value="&lt;font color=&quot;#000000&quot;&gt;assure&lt;/font&gt;" style="text;html=1;strokeColor=none;fillColor=none;align=center;verticalAlign=middle;whiteSpace=wrap;rounded=0;hachureGap=4;pointerEvents=0;fontColor=#FF0000;" vertex="1" parent="1">
          <mxGeometry x="-30" y="990" width="40" height="20" as="geometry" />
        </mxCell>
        <mxCell id="E8sl169XmfHfBf8Qk7qb-131" value="&lt;font color=&quot;#000000&quot;&gt;est accessible&lt;/font&gt;&amp;nbsp;" style="text;html=1;strokeColor=none;fillColor=none;align=center;verticalAlign=middle;whiteSpace=wrap;rounded=0;hachureGap=4;pointerEvents=0;fontColor=#FF0000;" vertex="1" parent="1">
          <mxGeometry x="244" y="960" width="40" height="20" as="geometry" />
        </mxCell>
        <mxCell id="E8sl169XmfHfBf8Qk7qb-132" value="&lt;font color=&quot;#000000&quot;&gt;dirige&lt;/font&gt;" style="text;html=1;strokeColor=none;fillColor=none;align=center;verticalAlign=middle;whiteSpace=wrap;rounded=0;hachureGap=4;pointerEvents=0;fontColor=#FF0000;" vertex="1" parent="1">
          <mxGeometry x="394" y="860" width="40" height="20" as="geometry" />
        </mxCell>
        <mxCell id="E8sl169XmfHfBf8Qk7qb-133" value="&lt;font color=&quot;#000000&quot;&gt;travaille dans&amp;nbsp;&lt;/font&gt;" style="text;html=1;strokeColor=none;fillColor=none;align=center;verticalAlign=middle;whiteSpace=wrap;rounded=0;hachureGap=4;pointerEvents=0;fontColor=#FF0000;" vertex="1" parent="1">
          <mxGeometry x="410" y="780" width="40" height="20" as="geometry" />
        </mxCell>
        <mxCell id="E8sl169XmfHfBf8Qk7qb-134" value="&lt;font color=&quot;#000000&quot;&gt;travaille sur&amp;nbsp;&lt;/font&gt;" style="text;html=1;strokeColor=none;fillColor=none;align=center;verticalAlign=middle;whiteSpace=wrap;rounded=0;hachureGap=4;pointerEvents=0;fontColor=#FF0000;" vertex="1" parent="1">
          <mxGeometry x="660" y="660" width="40" height="20" as="geometry" />
        </mxCell>
        <mxCell id="E8sl169XmfHfBf8Qk7qb-135" value="chef : booléen " style="shape=partialRectangle;connectable=0;fillColor=none;top=0;left=0;bottom=0;right=0;align=left;spacingLeft=6;overflow=hidden;fontStyle=1;strokeColor=#FF0000;fontColor=#FF0000;" vertex="1" parent="1">
          <mxGeometry x="30" y="900" width="190" height="60" as="geometry">
            <mxRectangle width="190" height="60" as="alternateBounds" />
          </mxGeometry>
        </mxCell>
        <mxCell id="E8sl169XmfHfBf8Qk7qb-137" value="matriculeNum : varChar(30)" style="shape=partialRectangle;connectable=0;fillColor=none;top=0;left=0;bottom=0;right=0;align=left;spacingLeft=6;overflow=hidden;fontStyle=1;fontColor=#FF0000;" vertex="1" parent="1">
          <mxGeometry x="710" y="840" width="170" height="30" as="geometry">
            <mxRectangle width="150" height="30" as="alternateBounds" />
          </mxGeometry>
        </mxCell>
        <mxCell id="E8sl169XmfHfBf8Qk7qb-138" value="FK" style="text;html=1;strokeColor=none;fillColor=none;align=center;verticalAlign=middle;whiteSpace=wrap;rounded=0;hachureGap=4;pointerEvents=0;fontColor=#FF0000;" vertex="1" parent="1">
          <mxGeometry x="675" y="845" width="40" height="20" as="geometry" />
        </mxCell>
      </root>
    </mxGraphModel>
  </diagram>
</mxfile>
